<?xml version="1.0" encoding="UTF-8" standalone="no"?>
<!-- Generator: Adobe Illustrator 12.0.0, SVG Export Plug-In . SVG Version: 6.00 Build 51448)  -->
<svg xmlns:dc="http://purl.org/dc/elements/1.1/" xmlns:cc="http://web.resource.org/cc/" xmlns:rdf="http://www.w3.org/1999/02/22-rdf-syntax-ns#" xmlns:svg="http://www.w3.org/2000/svg" xmlns="http://www.w3.org/2000/svg" xmlns:sodipodi="http://sodipodi.sourceforge.net/DTD/sodipodi-0.dtd" xmlns:inkscape="http://www.inkscape.org/namespaces/inkscape" version="1.1" id="Layer_1" width="192.756" height="192.756" viewBox="0 0 192.756 192.756" overflow="visible" enable-background="new 0 0 192.756 192.756" xml:space="preserve" sodipodi:version="0.32" inkscape:version="0.45.1" sodipodi:docname="Dodge[1].svg" inkscape:output_extension="org.inkscape.output.svg.inkscape" sodipodi:docbase="C:\Users\Virgile"><metadata id="metadata2554"><rdf:RDF><cc:Work rdf:about=""><dc:format>image/svg+xml</dc:format><dc:type rdf:resource="http://purl.org/dc/dcmitype/StillImage"/></cc:Work></rdf:RDF></metadata><defs id="defs2552"/><sodipodi:namedview inkscape:window-height="1000" inkscape:window-width="1400" inkscape:pageshadow="2" inkscape:pageopacity="0.0" guidetolerance="10.0" gridtolerance="10.0" objecttolerance="10.0" borderopacity="1.0" bordercolor="#666666" pagecolor="#ffffff" id="base" inkscape:zoom="1.9558406" inkscape:cx="96.377998" inkscape:cy="96.377998" inkscape:window-x="-8" inkscape:window-y="-8" inkscape:current-layer="Layer_1"/>
<g id="g2525">
	
	<path fill-rule="evenodd" clip-rule="evenodd" fill="#E92E29" d="M147.009,14.765c-8.267-0.816-30.088-2.037-50.668-2.037   c-20.583,0-42.402,1.22-50.665,2.037c-9.435,0.962-13.821,5.754-13.821,15.094c0,17.73,0.653,45.358,1.864,61.586   c1.083,14.466,1.927,25.888,19.939,36.83c12.886,7.833,25.701,14.546,42.387,23.155l0.287,0.162l0.295-0.162   c16.725-8.638,29.564-15.351,42.398-23.155c18.021-10.952,18.87-22.364,19.938-36.83c1.221-16.305,1.879-43.904,1.879-61.586   C160.84,20.52,156.443,15.727,147.009,14.765L147.009,14.765z M153.374,91.05c-1.029,13.844-1.712,23-17.253,32.439   c-12.197,7.412-22.957,13.063-39.223,21.51l-0.558,0.268l-0.553-0.268c-15.752-8.166-26.989-14.078-39.222-21.51   c-15.548-9.439-16.239-18.604-17.259-32.454c-1.207-16.143-1.854-43.566-1.854-61.177c0-6.45,2.212-8.843,8.782-9.517   c8.17-0.805,29.758-2.016,50.107-2.016c20.356,0,41.93,1.211,50.111,2.016c6.569,0.673,8.777,3.067,8.777,9.517   C155.229,47.46,154.58,74.874,153.374,91.05L153.374,91.05z" id="path2529"/>
	<path fill-rule="evenodd" clip-rule="evenodd" fill="#E92E29" d="M95.477,54.201l-1.94,6.518   c-7.028-14.364-15.417-21.902-25.573-21.902c-10.975,0-16.347,7.348-17.935,9.669c2.821-7.08,10.264-13.306,20.175-13.306   C83.787,35.18,91.463,45.906,95.477,54.201L95.477,54.201z" id="path2531"/>
	<path fill-rule="evenodd" clip-rule="evenodd" fill="#E92E29" d="M44.579,68.924c0.085,23.928,7.046,35.438,17.439,35.438   c4.815,0,8.267-3.032,8.267-7.962c0-4.206-1.826-7.542-2.569-8.882c0.281,1.378,0.539,2.942,0.539,4.705   c0,4.125-2.785,5.455-5.064,5.455c-6.913,0-13.825-13.444-15.78-28.753C46.539,68.924,44.555,68.924,44.579,68.924L44.579,68.924z" id="path2533"/>
	<path fill-rule="evenodd" clip-rule="evenodd" fill="#E92E29" d="M122.49,35.18c9.915,0,17.344,6.226,20.181,13.306   c-1.588-2.321-6.961-9.669-17.949-9.669c-10.136,0-18.527,7.538-25.56,21.902l-1.941-6.518   C101.227,45.906,108.916,35.18,122.49,35.18L122.49,35.18z" id="path2535"/>
	<path fill-rule="evenodd" clip-rule="evenodd" fill="#E92E29" d="M145.287,68.924c-1.948,15.309-8.866,28.753-15.79,28.753   c-2.272,0-5.048-1.33-5.048-5.455c0-1.763,0.247-3.327,0.525-4.705c-0.735,1.34-2.562,4.676-2.562,8.882   c0,4.93,3.447,7.962,8.267,7.962c10.385,0,17.359-11.509,17.435-35.438C148.145,68.924,146.166,68.924,145.287,68.924   L145.287,68.924z" id="path2537"/>
	<path fill-rule="evenodd" clip-rule="evenodd" fill="#E92E29" d="M131.172,48.343c-8.878,0-17.555,7.08-22.746,23.417l3.355,2.341   l-1.606,8.034l-6.278,2.597l-1.14,7.895l3.061-3.751l3.28-1.359l-1.021,5.101l-5.658,2.35l-1.984,13.651l1.383,4.357l-5.468,2.169   l-5.473-2.169l1.386-4.357l-1.988-13.651l-5.664-2.35l-1.009-5.101l3.274,1.359l3.07,3.751l-1.154-7.895l-6.27-2.597l-1.616-8.034   l3.361-2.341c-5.187-16.337-13.859-23.417-22.746-23.417c-10.979,0-15.528,10.422-14.936,19.008h2.646   c2.197,12.142,8.372,22.43,13.016,22.43c1.42,0,2.164-1.082,2.164-2.859c0-4.281-2.922-8.763-2.922-16.95   c0-3.771,1.23-6.135,4.062-6.135c1.931,0,3.51,2.031,4.449,4.247c-1.716,6.116-1.459,11.237,3.423,13.417   c2.412,1.072,5.32,2.35,5.32,2.35s3.099,13.129,3.323,14.068c0.204,0.858,0.737,2.031,1.13,2.755   c0.566,0.987,4.634,7.953,4.634,7.953s1.383,6.947,1.677,8.424c0.797,3.976,3.634,3.985,6.842,3.976   c3.199,0.01,6.035,0,6.837-3.976c0.295-1.477,1.683-8.424,1.683-8.424s4.057-6.966,4.638-7.953   c0.387-0.724,0.916-1.896,1.111-2.755c0.224-0.939,3.328-14.068,3.328-14.068s2.912-1.278,5.33-2.35   c4.878-2.18,5.14-7.301,3.418-13.417c0.939-2.216,2.523-4.247,4.453-4.247c2.832,0,4.057,2.364,4.057,6.135   c0,8.187-2.922,12.668-2.922,16.95c0,1.777,0.744,2.859,2.164,2.859c4.634,0,10.818-10.288,13.024-22.43h2.637   C146.699,58.765,142.156,48.343,131.172,48.343L131.172,48.343z M75.333,79.136c-3.456-1.469-3.808-5.56-2.655-11.003l3.785,5.949   l1.407,6.137C77.87,80.219,76.502,79.632,75.333,79.136L75.333,79.136z M117.364,79.136c-1.177,0.496-2.546,1.083-2.546,1.083   l1.402-6.137l3.789-5.949C121.165,73.577,120.815,77.667,117.364,79.136L117.364,79.136z" id="path2539"/>
	<path fill-rule="evenodd" clip-rule="evenodd" d="M88.87,169.48v6.569c0,0,6.707,0,8.948,0c4.954,0,6.827-1.982,6.827-4.719   c0-1.798-0.893-4.7-6.75-4.7c-2.056,0-15.113,0-15.113,0v-3.696c0,0,10.24,0,15.766,0c10.031,0,12.372,4.243,12.372,8.396   c0,4.981-3.366,8.429-12.396,8.429c-5.549,0-15.741,0-15.741,0V169.48H88.87L88.87,169.48z" id="path2541"/>
	<path fill-rule="evenodd" clip-rule="evenodd" d="M22.033,169.48v6.569c0,0,6.717,0,8.954,0c4.953,0,6.822-1.982,6.822-4.719   c0-1.798-0.887-4.7-6.75-4.7c-2.056,0-15.104,0-15.104,0v-3.696c0,0,10.241,0,15.762,0c10.04,0,12.38,4.243,12.38,8.396   c0,4.981-3.38,8.429-12.399,8.429c-5.554,0-15.743,0-15.743,0V169.48H22.033L22.033,169.48z" id="path2543"/>
	<path fill-rule="evenodd" clip-rule="evenodd" d="M128.916,169.462v3.723h8.921v2.865c0,0-6.623,0-8.873,0   c-5.04,0-6.907-1.982-6.907-4.719c0-3.052,2.535-4.691,6.56-4.691c2.054,0,15.298,0,15.298,0v-3.705c0,0-10.006,0-15.531,0   c-7.977,0-12.602,2.522-12.602,8.396c0,5.754,4.469,8.429,12.367,8.429c5.555,0,15.766,0,15.766,0v-10.298H128.916L128.916,169.462   z" id="path2545"/>
	<polygon fill-rule="evenodd" clip-rule="evenodd" points="157.436,166.61 176.596,166.61 176.596,162.935 150.951,162.935    150.951,179.76 176.802,179.76 176.802,176.05 157.436,176.05 157.436,173.176 175.571,173.176 175.571,169.472 157.436,169.472    157.436,166.61  " id="polygon2547"/>
	<path fill-rule="evenodd" clip-rule="evenodd" d="M63.229,180.027c-10.379,0-14.339-3.404-14.339-8.696   c0-5.249,4.09-8.678,14.339-8.678c10.247,0,14.336,3.429,14.336,8.678C77.564,176.623,73.476,180.027,63.229,180.027   L63.229,180.027z M71.282,171.331c0-2.875-2.79-4.983-8.054-4.983c-5.306,0-8.057,2.108-8.057,4.983c0,2.745,2.475,4.99,8.057,4.99   C68.889,176.321,71.282,174.076,71.282,171.331L71.282,171.331z" id="path2549"/>
</g>
</svg>