<svg id="logosandtypes_com" data-name="logosandtypes com" xmlns="http://www.w3.org/2000/svg" viewBox="0 0 150 150"><defs><style>.cls-1{fill:none;}.cls-2{fill:#cd1040;}</style></defs><path class="cls-1" d="M0,0H150V150H0Z" transform="translate(0 0)"/><path class="cls-2" d="M107.22,109.93H65.75A18.65,18.65,0,0,0,67.33,106h-61v9.54H61.43c.56-.55,1.08-1.11,1.57-1.67h41.44c-.49.56-1,1.12-1.57,1.67h40.82v-7.46H108.11A19.65,19.65,0,0,1,107.22,109.93Z" transform="translate(0 0)"/><path class="cls-2" d="M89.46,65.58H47.77q-1.41-2.06-2.58-4.14H6.31v12H53.72c-.93-1.17-1.86-2.34-2.76-3.52H92.63l1.43,1.86h49.63V63.72H88.25C88.63,64.35,89,65,89.46,65.58Z" transform="translate(0 0)"/><path class="cls-2" d="M89.12,36.37H47.3c.4-.48.83-1,1.28-1.45H6.31V44H42.77a21.67,21.67,0,0,1,2-4.15H86.57a23.12,23.12,0,0,0-1.69,3.32h58.81V34.93H90.41C90,35.4,89.53,35.89,89.12,36.37Z" transform="translate(0 0)"/><path class="cls-2" d="M108.56,95.42H67a29.85,29.85,0,0,0-1.49-4.14H6.31v11.39H67.87a19.76,19.76,0,0,0-.1-3.52h41.52a19,19,0,0,1,.12,2.49h34.28v-8.7H107.76A23.8,23.8,0,0,1,108.56,95.42Z" transform="translate(0 0)"/><path class="cls-2" d="M100.46,80.09H58.84Q57.47,78.2,56,76.36H6.31V88.17H64c-.66-1.25-1.41-2.49-2.18-3.73h41.59c.51.83,1,1.66,1.49,2.49h38.78V78.22H99.09Z" transform="translate(0 0)"/><path class="cls-2" d="M83.57,51.09H41.8A17.21,17.21,0,0,1,42,46.93H6.31V58.54H43.75a26,26,0,0,1-1.21-3.32H84.28c.17.63.38,1.25.61,1.87h58.8V48.38H83.61A16.37,16.37,0,0,0,83.57,51.09Z" transform="translate(0 0)"/></svg>