<?xml version="1.0" standalone="no"?>
<!DOCTYPE svg PUBLIC "-//W3C//DTD SVG 20010904//EN"
 "http://www.w3.org/TR/2001/REC-SVG-20010904/DTD/svg10.dtd">
<svg version="1.0" xmlns="http://www.w3.org/2000/svg"
 width="1024.000000pt" height="1024.000000pt" viewBox="0 0 1024.000000 1024.000000"
 preserveAspectRatio="xMidYMid meet">

<g transform="translate(0.000000,1024.000000) scale(0.100000,-0.100000)"
fill="#000000" stroke="none">
<path d="M8705 10179 c-452 -359 -1759 -1681 -3000 -3034 -127 -138 -234 -253
-239 -255 -10 -5 -53 52 -262 350 -409 582 -893 1318 -1298 1975 -143 232
-176 279 -238 338 -40 37 -96 79 -125 94 -46 22 -62 25 -111 19 -115 -13 -217
-90 -268 -201 -14 -30 -34 -102 -46 -161 -11 -58 -26 -121 -34 -140 -37 -87
-122 -140 -186 -113 -17 7 -44 31 -60 53 -26 36 -223 206 -239 206 -4 0 -60
-56 -126 -124 -130 -134 -263 -295 -349 -421 l-54 -80 31 -120 c96 -376 387
-1121 730 -1865 203 -442 544 -1105 805 -1565 l102 -180 -28 -30 c-15 -16 -40
-48 -56 -70 -16 -22 -112 -137 -214 -255 -337 -390 -1092 -1262 -1227 -1417
-147 -169 -833 -1047 -833 -1067 0 -29 84 -253 141 -376 47 -100 63 -145 62
-175 -2 -53 -34 -137 -83 -216 -70 -112 -83 -143 -76 -180 6 -36 126 -230 254
-413 81 -115 230 -281 262 -291 12 -4 50 8 97 31 173 82 283 104 323 64 26
-26 25 -51 -6 -159 -14 -50 -24 -96 -22 -102 2 -7 62 -76 133 -155 l130 -143
95 0 95 0 220 306 c499 697 806 1111 1274 1722 272 355 532 697 579 760 46 64
89 122 96 129 10 10 31 -12 107 -115 113 -152 306 -428 449 -643 354 -531 681
-956 979 -1275 85 -90 111 -111 161 -125 30 -8 42 -5 100 26 128 71 270 197
434 386 32 37 66 70 76 73 21 7 156 -79 270 -170 109 -87 121 -90 209 -46 84
43 202 140 262 216 28 36 64 75 79 87 l29 23 -22 83 -22 84 60 56 c33 32 138
119 232 195 94 75 195 163 223 195 98 109 175 265 221 446 l22 86 -114 118
c-288 297 -785 910 -1585 1957 -332 434 -404 530 -404 540 0 9 272 347 499
620 680 815 1380 1588 2273 2506 l338 347 -14 39 c-16 47 -13 57 33 108 71 77
151 213 151 256 0 13 -257 404 -290 442 -4 5 -50 -3 -101 -17 -52 -14 -101
-26 -110 -26 -37 0 -259 190 -259 221 0 10 16 48 36 84 l36 66 -28 42 c-38 58
-284 300 -374 369 -108 82 -111 82 -205 7z"/>
</g>
</svg>
