<svg id="Layer_1" data-name="Layer 1" xmlns="http://www.w3.org/2000/svg" viewBox="0 0 410.12 130.55"><title>Hot Wheels logo - Brandlogos.net</title><g id="_Group_" data-name="&lt;Group&gt;"><path id="_Path_" data-name="&lt;Path&gt;" d="M457,417.24c-16.33-5.73-34.8-7.31-52.61-6.17-16.9,1.07-33.85,4.34-50.6,8-19,4.19-38,9.15-56.88,14.21C264,442.11,230.81,452,197.35,456.48c-10.29,1.37-20.7,2.25-30.65.19-9.78-2-18.37-6.93-25.83-13.1a32.07,32.07,0,0,0,.74,7.57c1,4.78,3.65,8.7,6.48,12.47A128.47,128.47,0,0,1,127.83,465a71.08,71.08,0,0,1-18.34-3.1c-5.35-1.62-10.83-3.6-15.26-6.88A119.63,119.63,0,0,1,85,447c-.3,6.4,2.7,13,6,18.17a82.31,82.31,0,0,0,17,19.62A54.37,54.37,0,0,0,129.25,496a73.11,73.11,0,0,0,27.11,1.57,100.8,100.8,0,0,0,14.84-2.91c4-1.1,7.94-2.5,12-3.65,1.48-.43,3-.92,4.42-.46,1.74.55,1.81,2.35,1.53,4a18.5,18.5,0,0,1-6.58,10.84c-3.11,2.44-6.7,2.84-9.8.95-2.76-1.68-5.25-3.41-8.61-3.9-4.23-.62-9,.09-13.27.74-4.88.73-9.76,1.79-14.65,2a50.28,50.28,0,0,1-18.85-3c-4.33-1.45-9-3.41-13.17-5.17,5.14,12.75,17.52,21.35,29.08,27.75,15.14,8.37,32.2,13.35,49.82,15.45s35.8.79,53.8-2.34a322.33,322.33,0,0,0,54.91-14.86c15.91-5.79,31.47-12.7,46.88-20,16.47-7.77,32.76-15.94,49.58-22.77,13.34-5.41,27-10.31,41-12.89,13.69-2.52,30.25-3.78,40.64,5.45,13.85,12.3,6.07,33.26,5.18,35.61,17.6-15.94,25.14-41.8,16.25-62.24-4.48-10.32-15-22.4-34.36-29" transform="translate(-84.94 -410.72)" style="fill:#fff"/><path id="_Path_2" data-name="&lt;Path&gt;" d="M417.6,414.79c-34.67-1.61-95.2,15.66-145.1,29-40,10.72-72.45,17.83-94,18.08-12.08-.22-23.85-3.11-33-10.48,1.33,3.7,8.18,14,11.26,15C144,468,131,470.16,118.57,468c-9.9-1.65-20.78-4.76-28.34-11.74a81.54,81.54,0,0,0,24.32,28.44c17.73,13,43.31,11.26,64.63,3.4a34.91,34.91,0,0,1,6.95-1.71c5.39-.08,9.15,3.51,5.65,12.49-2.89,6.76-8.41,12.2-14.51,12.6-8.09.4-8.34-6-17.6-5.26-16.16.38-26.88,8.07-48-3,4.2,4.17,28.4,31,82.75,34,13.85.77,29.53-1.22,36.84-2.35,47.59-7.36,85.27-25.39,118.52-41.3,28.22-13.89,62-28.57,86.87-31.18,20.91-2.73,36.77,3.23,42.44,15.93,2.53,5.68,2.88,12.29,1.15,19.26,22.17-30.86,15.33-80.77-62.61-82.85" transform="translate(-84.94 -410.72)" style="fill:#ed1d24"/><path id="_Compound_Path_" data-name="&lt;Compound Path&gt;" d="M272.77,483.76c-1.23,16.68-6.38,32.81-18.61,36.08-11.37,2.44-16.54-15.22-14.49-27.5,1.51-16.91,8.28-29.18,18.12-32.35,9.33-3,16.16,7.2,15,23.77m-15.3-13.91c-3,.79-5.06,8.75-5.93,19.94s-.5,21.09,3.55,20.05,4.85-11.48,5.64-22.67-.42-18.1-3.26-17.32m8.45-14.42c10.95-3.5,19.77,1.83,22.92,9.83h0c.4,1,.88,1.18,1.37,1.16,1,0,7.54-1.53,9.85-4.33,0,0,1.82,8-7.92,13.34a2.84,2.84,0,0,0-1.44,2.16c-.07,1.36-1.1,8.36-1.56,10.29-.2.86-1,2.73.68,2.72,1.39,0,5.56-1.24,8.46-8.49.1-.45,0,0,0,0-2.64,15.82-12.87,28-22.73,31.64-6.89,2.54-5.78-2-4.48-4.81,4.53-10.79,4.86-16,5.77-22.77.95-7,.24-27.7-10.94-30.76m-11.22-1.22c-9.72,6.51-17.48,22.12-19.07,38.15-.32,3.26-2.82,26.52,13.84,33.37-11.22,2.31-23.42,4.41-29.39,4.91a69.15,69.15,0,0,0,2.8-15.35c.66-7.93-.24-14.46-3.13-13.89-2.14.42-4.95,8-5.43,14.64a52.54,52.54,0,0,0,1,15.05,148,148,0,0,1-33.95-.93c2.07-.43,19.76-11.07,22.9-31.56,3.5-22.82-16.11-27.75-25-31.1,12.95-.24,22-1.46,41-5.2,0,0-2.48,3.78-3,14-.46,9.37,1.3,14.24,3.14,14.12,2.18-.14,4.45-5.11,5.27-15.08.85-10.23-.71-14-.71-14,8.79-2,14.73-3.1,29.71-7.12M376.1,424.28c.58,8.62-1.32,20.56-4.77,21.54-2.82.8-3.79-12.34-1.42-20.4-3.59.71-13.88,2.85-18.39,3.85,14.75,17,6.31,41.39-3.3,59,5.33-2.63,14.68-7,19.86-9.38-2-8.68.16-20.87,3.28-22,2.72-1,4.58,13.19,1.77,19.77,4.75-2.25,11.3-4.84,18.21-7.53-8.47-3.43-14.67-29.56,2.75-47.44-3.91.45-14.35,2-18,2.64M289,445.16c3.69.74,20,5.32,19.91,28.33,0,21.07-9.27,34.19-12,37.65,0,0,5.76-2.19,11.75-4.76,6.51-2.79,12.95-5.65,12.95-5.65s-1.56-4.59,1-12.9c2.78-9,6.28-11.72,6.28-11.72s-1,3.65,1.29,10.28,5.1,8.13,5.1,8.13l9.94-4.88s-2.72-6.52,2.31-16.8c4.26-8.68,9.49-19.23,6.15-31.47A30.4,30.4,0,0,0,348.28,430c-1.53.33-13.94,3.3-16.71,4,2.95,1.09,9.21,4.65,9.9,15.35.47,7.36-3.58,13.86-3.58,13.86a10.55,10.55,0,0,0-2-7c-2.37-3.49-4.78-4.23-4.78-4.23a30,30,0,0,1-3.68,10.74,25.59,25.59,0,0,1-5.53,6.84s2.81-9.34.87-18.58c-1.79-8.54-6.24-11.68-8.16-12.65-4.15,1.08-21.81,5.78-25.63,6.81m178.55,13.51a9.22,9.22,0,0,1-4.27-.21c-2.4-.64-4.08-1.26-6.13-1.94l.53-8.39c.92,2.08,3.94,4.47,5.69,4.14a1.29,1.29,0,0,0,1-.91,3,3,0,0,0-1-2.48c-.8-.89-2.25-2.37-3.47-3.74-5.46-6.12-2.83-10.6-1.44-11.82a6.21,6.21,0,0,1,5.25-1.34c3.49.56,6.12,3.38,7.29,6.25a9.56,9.56,0,0,1,.7,5.55c-.68-2-5.48-7.43-7.39-5.08-1.28,1.58,1.49,3.62,4.34,6.12,3.85,3.37,4.22,6,3.06,9.83a5.45,5.45,0,0,1-4.19,4M400.68,447.3c4.77-4.54,10.2-8.58,12.4-14.19s2.34-9.38-1.41-11.62c-3.53-2.1-10.2-1.62-16.89,6.15-7.32,8.49-9.29,22.66-7.62,29.42,1.44,5.8,4.54,11.06,11,9.47,11.36-2.79,11.72-19.1,11.72-19.1s-4.55,7.71-8.36,8.14c-4,.46-4.73-4.57-.84-8.27m-3.3-3.56a27.93,27.93,0,0,1,2.26-9.79c2.17-4.83,5.19-7.57,7-5.95s.16,4.86-1.51,6.91a39.38,39.38,0,0,1-4.81,5,12.84,12.84,0,0,0-3,3.86m28.46,6.17c-3.79.49-4-3.49-.9-6.52,3.86-3.72,8.24-7,10-11.6s1.85-7.65-1.22-9.45c-2.88-1.69-8.37-1.14-13.77,5.21-5.91,6.95-7.63,18.64-6.31,24.16s4.13,9.06,9.82,7.29c8.66-2.7,11.51-15.71,11.51-15.71s-5.1,6.1-9.13,6.63M424,432.53c1.74-3.94,4.17-6.18,5.68-4.88s.16,4-1.19,5.63a32.12,32.12,0,0,1-3.88,4.06,10.48,10.48,0,0,0-2.39,3.16,22.72,22.72,0,0,1,1.78-8m15.34-9.74c2.28,9.53-.42,26.82-6.83,34.47a82.18,82.18,0,0,1,21-.86l1-13.55c-2.78,6.27-16.92,14.77-4.45-17.42a88.51,88.51,0,0,0-10.76-2.64" transform="translate(-84.94 -410.72)" style="fill:#fff200"/><path id="_Compound_Path_2" data-name="&lt;Compound Path&gt;" d="M479.26,466.13a4.75,4.75,0,1,1,4.51-5,4.75,4.75,0,0,1-4.51,5m-.42-8.43a3.69,3.69,0,1,0,3.8,3.5,3.58,3.58,0,0,0-3.8-3.5m1.16,6.16L479,462l-.54,0,.1,2-1.13.06-.25-5,2.06-.1a1.6,1.6,0,0,1,1.76,1.5,1.43,1.43,0,0,1-.86,1.38l1.17,2.07Zm-.87-4.08-.79,0,.06,1.31.79,0a.66.66,0,1,0-.06-1.31" transform="translate(-84.94 -410.72)" style="fill:#fff"/><path id="_Compound_Path_3" data-name="&lt;Compound Path&gt;" d="M208.88,538.17a140.89,140.89,0,0,1-14.54,0c-23.93-1.35-57.71-8.29-82.74-33.69l-5-5,5.5,2.89c14.82,7.78,24.39,6.16,34.54,4.45a90.44,90.44,0,0,1,13-1.52c5.07-.45,7.74,1.31,10.07,2.84,2.12,1.39,3.95,2.59,7.5,2.41,5.34-.35,10.72-5.07,13.69-12,1.57-4,1.71-7.17.38-9.08s-3.49-2.14-5.16-2.11A34,34,0,0,0,179.5,489c-25.27,9.31-49.76,8-65.5-3.53a82.13,82.13,0,0,1-24.6-28.78l-2.3-4.58,3.76,3.47c6.1,5.64,15.22,9.4,27.86,11.51,11.22,1.9,23.13.3,34.66-1.25l.8-.1c-3.71-3.36-8.54-11.11-9.61-14l-1.12-3.11,2.58,2.07c8.2,6.57,19.12,10,32.46,10.27,19.06-.23,48-5.78,93.76-18l12.14-3.27c47.43-12.78,101.18-27.27,133.23-25.79,45.4,1.21,63.15,18,70,31.93,7.79,15.71,5.22,35.78-6.72,52.4l-2.83,3.94,1.17-4.71c1.69-6.8,1.31-13.26-1.1-18.66-5.49-12.31-21-18-41.47-15.38-20,2.11-48.35,12.28-86.58,31.09-33.34,15.95-71.08,34-118.79,41.38-4.22.65-12.88,1.85-22.49,2.33m-92.59-31.71c24.21,22.32,55.6,28.61,78.15,29.87,14.31.8,30.39-1.37,36.64-2.34,47.44-7.33,85.05-25.33,118.24-41.2,38.45-18.92,67-29.15,87.2-31.28,21.31-2.75,37.54,3.38,43.39,16.48a28.89,28.89,0,0,1,2,15.33c9.35-15.24,11-32.79,4.05-46.71-9.43-19-33.73-30-68.43-30.89h0c-31.74-1.48-85.37,13-132.67,25.73l-12.14,3.27c-45.92,12.3-75,17.86-94.25,18.11-12.19-.22-22.43-3.05-30.53-8.43,2.55,4.43,7,10.43,9,11.09l3.87,1.28-7.24,1c-11.66,1.57-23.72,3.2-35.21,1.24-10.72-1.79-19-4.76-25.16-9A81.19,81.19,0,0,0,115.1,484c15.23,11.15,39.07,12.38,63.75,3.29a35.52,35.52,0,0,1,7.23-1.77c3,0,5.42,1,6.75,2.91,1.72,2.48,1.65,6.12-.19,10.84-3.26,7.63-9.27,12.79-15.31,13.19-4.18.21-6.44-1.28-8.63-2.71s-4.41-2.89-9-2.55a86.67,86.67,0,0,0-12.82,1.5c-9.26,1.58-18.06,3.06-30.62-2.22" transform="translate(-84.94 -410.72)" style="fill:#fff"/></g></svg>